<?xml version="1.0" ?><!-- Uploaded to: SVG Repo, www.svgrepo.com, Generator: SVG Repo Mixer Tools -->
<svg width="800px" height="800px" viewBox="0 0 32 32" id="OBJECT" xmlns="http://www.w3.org/2000/svg"><defs><style>.cls-1{fill:#b2b2b2;}</style></defs><title/><path class="cls-1" d="M25.88,27.3l-2.65-2.65a1,1,0,0,1-.29-.71V19h2v4.53l2.36,2.35Z"/><path class="cls-1" d="M6.12,27.3,4.7,25.88l2.36-2.35V19h2v4.94a1,1,0,0,1-.29.71Z"/><rect class="cls-1" height="5" width="2" x="15" y="19"/><circle cx="16" cy="27" r="4"/><circle cx="28" cy="28" r="3"/><circle cx="4" cy="28" r="3"/><path class="cls-1" d="M29,12.5H26.42a11.26,11.26,0,0,0-.57-1.39l1.83-1.83a2,2,0,0,0,0-2.83L25.55,4.33a2,2,0,0,0-2.84,0L20.89,6.15a11.26,11.26,0,0,0-1.39-.57V3a2,2,0,0,0-2-2h-3a2,2,0,0,0-2,2V5.58a11.26,11.26,0,0,0-1.39.57L9.28,4.32a2,2,0,0,0-2.83,0L4.33,6.45a2,2,0,0,0,0,2.84l1.82,1.82a11.26,11.26,0,0,0-.57,1.39H3a2,2,0,0,0-2,2v3a2,2,0,0,0,2,2H29a2,2,0,0,0,2-2v-3A2,2,0,0,0,29,12.5Z"/><path d="M23.5,16.5a7.5,7.5,0,1,0-14.37,3H22.87A7.49,7.49,0,0,0,23.5,16.5Z"/></svg>