<svg width="88" height="21" viewBox="0 0 88 21" fill="none" xmlns="http://www.w3.org/2000/svg">
<g clip-path="url(#clip0_162_19353)">
<path d="M24.7464 0.284668L19.9125 19.8761H25.3803L30.2142 0.284668H24.7464ZM34.4934 15.4344L36.2367 8.37506H38.5349L39.3272 5.04372H37.0292L38.2179 0.443303H32.75L28.7878 16.2275C28.3915 17.8139 28.4708 18.845 29.184 19.3209C29.7388 19.7968 30.9274 20.0348 32.5916 19.9554C33.5425 19.9554 34.5726 19.8761 35.6821 19.7968L36.4744 16.4655H35.6028C34.6519 16.624 34.3349 16.2275 34.4934 15.4344ZM41.3084 5.04372L37.6631 19.8761H43.131L46.7762 5.04372H41.3084ZM57.8704 5.04372L55.493 14.8791C55.1761 16.0688 54.5421 16.624 53.4327 16.624C52.4025 16.624 52.0063 16.0688 52.3233 14.8791L54.7798 5.04372H49.312L46.5385 16.3068C46.1423 17.8931 46.38 18.9243 47.0932 19.4795C47.8064 20.0348 48.7574 20.352 49.946 20.2726C51.927 20.2726 53.512 19.5589 54.5421 18.1311H54.6214L54.2252 19.9554H59.6931L63.3382 5.04372H57.8704ZM87.27 5.44031C86.5568 4.88508 85.5266 4.64713 84.2587 4.64713C83.387 4.64713 82.5154 4.80577 81.7229 5.12303C80.8512 5.44031 80.0588 6.07485 79.4248 6.94734C79.2663 6.15416 78.9494 5.59895 78.3946 5.20236C77.8399 4.80577 76.9682 4.64713 75.7796 4.64713C73.7984 4.64713 72.2136 5.36099 71.1042 6.86802H71.0249L71.5004 5.04372H66.0325L62.3873 19.8761H67.8551L70.3117 10.0407C70.6287 8.85096 71.2627 8.29575 72.372 8.29575C73.4023 8.29575 73.7984 8.85096 73.4815 10.0407L71.0249 19.8761H76.4928L78.9494 10.0407C79.2663 8.85096 79.9795 8.29575 81.0097 8.29575C82.0399 8.29575 82.4361 8.85096 82.1191 10.0407L79.7417 19.8761H82.1191C83.8625 19.8761 85.4473 18.6863 85.8436 17.1793L87.9039 8.69233C88.1417 7.10597 87.9832 5.99553 87.27 5.44031ZM14.7616 0.284668C12.0673 0.363985 9.76921 1.87101 8.5013 4.17123L0.180664 19.8761H6.44096L7.94659 16.4655H12.622L12.4635 19.8761H18.7238L18.0106 0.284668H14.7616ZM12.8598 12.7375H9.61071L13.3352 4.56782L12.8598 12.7375Z" fill="#121212"/>
</g>
<defs>
<clipPath id="clip0_162_19353">
<rect width="87.8263" height="20" fill="white" transform="translate(0.180176 0.284668)"/>
</clipPath>
</defs>
</svg>
