<svg width="115" height="21" viewBox="0 0 115 21" fill="none" xmlns="http://www.w3.org/2000/svg">
<g clip-path="url(#clip0_162_19355)">
<path d="M0.00634766 4.53687V7.41083C0.678273 6.89537 1.38907 6.43266 2.13238 6.02685C1.45571 5.48601 0.745629 4.98836 0.00634766 4.53687Z" fill="#121212"/>
<path d="M3.19847 5.51446C4.16138 5.08895 5.17467 4.78813 6.21378 4.61929C7.75381 4.34623 9.33828 4.47607 10.8133 4.99621C10.7007 5.08918 10.5963 5.19164 10.5012 5.30245C10.2772 5.56039 10.0999 5.85532 9.97703 6.17406C9.2985 5.97258 8.59415 5.8714 7.88634 5.87371C7.39917 5.87605 6.91288 5.91542 6.43168 5.99149C5.72031 6.10736 5.02202 6.29278 4.34688 6.54509C5.39642 7.58182 6.3232 8.73585 7.10895 9.98443C7.48398 10.5796 7.82227 11.1972 8.12191 11.8337L8.22792 11.8867L11.4965 8.61811C11.1379 8.27943 10.9238 7.81537 10.8991 7.32273C10.8743 6.83009 11.0407 6.3469 11.3635 5.97395C11.6863 5.60099 12.1407 5.36707 12.6318 5.32096C13.1229 5.27485 13.6128 5.42013 13.9994 5.72648C14.0667 5.78681 14.1296 5.85175 14.1879 5.92082L16.3198 3.81835C14.202 1.65002 11.3256 0.387974 8.29596 0.297899C5.26636 0.207824 2.32 1.29675 0.0771484 3.33543C1.18144 3.96573 2.22618 4.69507 3.19847 5.51446Z" fill="#121212"/>
<path d="M6.21365 10.5616C5.38865 9.26169 4.39889 8.07397 3.26901 7.02808C2.08544 7.59921 0.987313 8.33262 0.00634766 9.20711L0.00634766 9.84904C2.25828 9.96962 4.47953 10.4262 6.59645 11.2036C6.48456 10.9857 6.3491 10.7737 6.21365 10.5616Z" fill="#121212"/>
<path d="M7.32672 12.6523C5.0073 11.6495 2.52926 11.0634 0.00634766 10.9209L0.00634766 20.1317L7.36795 12.7642C7.35617 12.723 7.3385 12.6877 7.32672 12.6523Z" fill="#121212"/>
<path d="M0.00634766 20.1317H9.06406C8.93646 17.5958 8.36436 15.1021 7.37384 12.7642L0.00634766 20.1317Z" fill="#121212"/>
<path d="M14.2112 8.44145C13.8815 8.82704 13.4122 9.06597 12.9064 9.10572C12.4006 9.14548 11.8998 8.98281 11.5139 8.65346L8.25122 11.9043C8.85677 12.1927 9.44653 12.5132 10.018 12.8643C11.2637 13.6516 12.4156 14.5782 13.4515 15.6264C13.7038 14.9512 13.8892 14.2529 14.005 13.5416C14.2129 12.3654 14.1525 11.1575 13.8284 10.008C14.2935 9.83577 14.7085 9.55038 15.0357 9.17761C15.549 10.6522 15.6747 12.234 15.4008 13.7712C15.2116 14.8074 14.8951 15.8162 14.4585 16.7748C15.2749 17.7397 16.0022 18.7765 16.6317 19.8725C18.637 17.6616 19.7216 14.7678 19.6636 11.7835C19.6056 8.79911 18.4093 5.94973 16.3195 3.81836L14.1876 5.94439C14.4909 6.28831 14.6603 6.72997 14.6646 7.18853C14.6689 7.64708 14.508 8.09186 14.2112 8.44145Z" fill="#121212"/>
<path d="M12.4326 20.1318H15.5363C15.0592 19.3327 14.5279 18.5672 13.9462 17.8408C13.5094 18.6471 13.003 19.4137 12.4326 20.1318Z" fill="#121212"/>
<path d="M9.42929 13.7595C9.21727 13.6241 9.00526 13.5004 8.78735 13.3767C9.57548 15.5473 10.0302 17.8249 10.136 20.1317H10.6071C11.5546 19.1074 12.3481 17.9508 12.9629 16.6983C11.918 15.569 10.7301 14.5811 9.42929 13.7595Z" fill="#121212"/>
<path d="M51.7676 1.34497V4.4074H46.7735V20.0964H42.9985V4.4074H38.0103V1.34497H51.7676Z" fill="#121212"/>
<path d="M65.9251 1.34497V4.4074H60.9309V20.0964H57.1677V4.4074H52.1736V1.34497H65.9251Z" fill="#121212"/>
<path d="M70.4833 19.0541C69.0325 18.246 67.8261 17.062 66.991 15.6266C66.1189 14.1213 65.673 12.4071 65.7012 10.6678C65.676 8.93809 66.1218 7.23414 66.991 5.73845C67.8261 4.30303 69.0325 3.11904 70.4833 2.31089C71.9701 1.50318 73.6352 1.08008 75.3272 1.08008C77.0192 1.08008 78.6844 1.50318 80.1712 2.31089C81.6147 3.11856 82.8116 4.30328 83.6341 5.73845C84.4969 7.23621 84.9385 8.93947 84.912 10.6678C84.9414 12.4058 84.4998 14.1193 83.6341 15.6266C82.8089 17.0636 81.6076 18.2486 80.1594 19.0541C78.6747 19.8618 77.0115 20.285 75.3213 20.285C73.6312 20.285 71.968 19.8618 70.4833 19.0541ZM78.3337 16.186C79.2031 15.6662 79.9028 14.9051 80.3478 13.9952C80.8488 12.9673 81.0971 11.8346 81.0722 10.6913C81.0962 9.53352 80.8375 8.38732 80.3184 7.35211C79.8752 6.46418 79.1863 5.72218 78.3337 5.2143C77.4152 4.71946 76.3882 4.46041 75.3449 4.46041C74.3016 4.46041 73.2746 4.71946 72.3561 5.2143C71.4741 5.7092 70.7573 6.45268 70.2948 7.35211C69.7934 8.37568 69.5449 9.50469 69.5705 10.6442C69.5456 11.7875 69.7939 12.9201 70.2948 13.9481C70.7353 14.879 71.4425 15.658 72.3267 16.186C73.2464 16.6933 74.2798 16.9594 75.3302 16.9594C76.3806 16.9594 77.4139 16.6933 78.3337 16.186Z" fill="#121212"/>
<path d="M107.444 1.34497V20.0964H103.658V7.89974L98.634 20.0964H95.7895L90.7601 7.89974V20.0964H86.9968V1.34497H91.2901L97.2501 15.2908L103.198 1.34497H107.444Z" fill="#121212"/>
<path d="M34.8828 16.4981H27.4152L26.1785 20.0729H22.2327L28.9759 1.29199H33.3516L40.0949 20.0729H36.1196L34.8828 16.4981ZM33.864 13.4887L31.149 5.64417L28.4341 13.4887H33.864Z" fill="#121212"/>
<path d="M111.39 1.46265V1.93968H110.601V4.40729H110.012V1.91023H109.223V1.46265H111.39Z" fill="#121212"/>
<path d="M114.847 1.46265V4.40729H114.258V2.46971L113.457 4.40729H113.009L112.209 2.48149V4.40729H111.62V1.46265H112.297L113.239 3.66524L114.176 1.46265H114.847Z" fill="#121212"/>
</g>
<defs>
<clipPath id="clip0_162_19355">
<rect width="114.841" height="20" fill="white" transform="translate(0.00634766 0.284668)"/>
</clipPath>
</defs>
</svg>
