<svg width="77" height="21" viewBox="0 0 77 21" fill="none" xmlns="http://www.w3.org/2000/svg">
<g clip-path="url(#clip0_162_19440)">
<path d="M76.0652 11.6847L69.0652 15.0847V20.2847H68.0652L65.6652 12.5847L69.5652 10.6847H62.1652L61.0652 6.98467L75.0652 0.284668L76.1652 3.98467L68.3652 7.78467L75.0652 8.18467L76.0652 11.6847Z" fill="#121212"/>
<path d="M0.164551 6.18462H7.16455V8.48462H2.86455V10.7846H6.86455V13.0846H2.86455V16.2846H0.164551V6.18462ZM14.1645 12.9846C14.1645 13.7846 13.9645 13.9846 13.0645 13.9846H12.5645C11.6645 13.9846 11.4646 13.6846 11.4646 12.9846V6.18462H8.76455V13.1846C8.76455 15.5846 10.0646 16.4846 12.2645 16.4846H13.2645C15.4645 16.4846 16.7645 15.5846 16.7645 13.1846V6.18462H14.1645V12.9846ZM28.2645 16.2846H30.9645V6.18462H28.2645V16.2846ZM40.7645 9.48462V12.9846C40.7645 15.4846 39.4645 16.4846 37.0645 16.4846H36.1645C33.8645 16.4846 32.4645 15.5846 32.4645 12.9846V9.48462C32.4645 6.98462 33.7645 5.98462 36.1645 5.98462H37.1645C39.4645 5.98462 40.7645 6.98462 40.7645 9.48462ZM38.0645 9.38462C38.0645 8.58462 37.8645 8.38462 36.9645 8.38462H36.3645C35.4645 8.38462 35.2645 8.68462 35.2645 9.38462V13.0846C35.2645 13.8846 35.4645 14.0846 36.3645 14.0846H36.9645C37.8645 14.0846 38.0645 13.7846 38.0645 13.0846V9.38462ZM45.1645 8.48462H48.7645L49.3645 6.18462H44.4645C42.7645 6.38462 41.8645 7.38462 41.8645 8.88462V9.28462C41.8645 10.5846 42.3645 11.4846 43.7645 11.9846L46.0645 12.7846C46.3645 12.8846 46.4645 12.9846 46.4645 13.3846V13.4846C46.4645 13.7846 46.2645 13.9846 45.8645 13.9846H42.4645L41.8645 16.2846H45.8645C48.0645 16.2846 49.1645 15.1846 49.1645 13.4846V13.0846C49.1645 12.1846 48.8645 11.4846 48.2645 10.9846C47.9645 10.7846 47.6645 10.5846 47.3645 10.4846L45.8645 9.98462L45.1645 9.68462C44.8645 9.58462 44.6645 9.48462 44.6645 9.08462V8.98462C44.5645 8.68462 44.7645 8.48462 45.1645 8.48462ZM24.7645 12.6846L27.0645 16.2846H23.9645L22.1645 13.1846H21.2645V16.2846H18.5645V6.18462H22.9645C25.2645 6.18462 26.5645 7.08462 26.5645 9.18462V10.0846C26.5645 11.3846 25.9645 12.2846 24.7645 12.6846ZM23.8645 9.18462C23.8645 8.68462 23.6645 8.38462 22.8645 8.38462H21.1645V10.7846H22.8645C23.5645 10.7846 23.8645 10.4846 23.8645 9.98462V9.18462ZM53.6645 12.0846L54.6645 8.38462L55.2645 10.6846H57.9645L57.2645 8.28462H54.7645L55.3645 6.08462H52.9645L49.7645 16.2846H52.5645L53.0645 14.2846H56.2645L56.7645 16.2846H59.5645L58.2645 12.0846H53.6645Z" fill="#121212"/>
</g>
<defs>
<clipPath id="clip0_162_19440">
<rect width="76" height="20" fill="white" transform="translate(0.164551 0.284668)"/>
</clipPath>
</defs>
</svg>
