<svg width="85" height="21" viewBox="0 0 85 21" fill="none" xmlns="http://www.w3.org/2000/svg">
<g clip-path="url(#clip0_162_19376)">
<path d="M26.0186 0.376298C25.002 0.542964 23.7103 1.3763 23.102 2.25963C22.7936 2.69296 22.427 3.49296 22.3353 3.91796C22.2103 4.45963 22.2186 5.64296 22.3436 6.15963C22.5436 6.9763 23.152 7.98463 23.7853 8.53463C24.2103 8.90963 25.0353 9.36797 25.5686 9.53463C26.202 9.73463 27.4853 9.75963 28.127 9.58463C29.7186 9.15963 30.9603 7.9763 31.4603 6.40963C31.6936 5.6763 31.6853 4.3513 31.4436 3.5763C31.0603 2.3763 30.152 1.34296 28.9853 0.776298C28.002 0.30963 27.127 0.192965 26.0186 0.376298ZM28.002 2.39296C29.077 2.9013 29.777 4.15963 29.627 5.3013C29.4603 6.5263 28.702 7.48463 27.652 7.79297C26.4853 8.13463 25.127 7.49296 24.5353 6.3013C24.3186 5.8763 24.2936 5.73463 24.2936 5.03463C24.2936 4.34296 24.3186 4.18463 24.5186 3.7763C24.9186 2.96796 25.6436 2.35963 26.4186 2.19296C26.852 2.1013 27.577 2.19296 28.002 2.39296Z" fill="#121212"/>
<path d="M48.5854 10.2847V20.2847H66.3771H84.1688V10.2847V0.284666H66.3771H48.5854V10.2847Z" fill="#121212"/>
<path d="M32.502 4.993V9.53467H33.4686H34.4353L34.402 6.993C34.3936 5.593 34.402 4.45133 34.427 4.45133C34.452 4.45133 34.602 4.72633 34.7603 5.05133C34.927 5.38467 35.5186 6.53467 36.0936 7.593L37.127 9.53467H38.0853H39.0436L39.0186 5.018L39.002 0.493001L38.0853 0.468L37.1686 0.443001L37.152 3.10967L37.127 5.77633L36.6936 4.92633C35.352 2.293 34.477 0.651334 34.352 0.551334C34.2686 0.484668 33.9186 0.451334 33.3603 0.451334H32.502V4.993Z" fill="#121212"/>
<path d="M40.1687 4.993V9.53467H43.4604H46.752V8.57633V7.618H44.4187H42.077L42.102 6.718L42.127 5.82634L44.2354 5.80134L46.3354 5.78467V4.90967V4.03467L44.2354 4.018L42.127 3.993V3.20134V2.40967L44.4437 2.38467L46.752 2.368V1.40967V0.451336H43.4604H40.1687V4.993Z" fill="#121212"/>
<path d="M26.3354 10.8763C24.5188 11.0763 22.9271 12.4513 22.3854 14.2763C22.1854 14.9429 22.2104 16.2013 22.4271 16.9013C23.1521 19.2513 25.5438 20.6846 27.8771 20.1596C28.2271 20.0846 28.6521 19.9596 28.8188 19.8929C29.3104 19.6846 30.0271 19.1596 30.4688 18.6846C31.8688 17.1513 32.0521 14.8096 30.9271 12.9929C30.6188 12.4929 29.7271 11.6763 29.1771 11.3763C28.3604 10.9429 27.3354 10.7596 26.3354 10.8763ZM28.0104 12.9096C28.8688 13.3513 29.4271 14.1013 29.5938 15.0513C29.9104 16.8013 28.5854 18.4263 26.8771 18.3929C26.0354 18.3846 25.2938 17.9763 24.8021 17.2596C24.0104 16.1013 24.0938 14.5679 25.0021 13.5596C25.3188 13.2096 26.0604 12.7929 26.5104 12.7179C26.9688 12.6346 27.6438 12.7263 28.0104 12.9096Z" fill="#121212"/>
<path d="M0.835449 15.5682V20.1182H2.77712C4.98545 20.1182 5.61878 20.0265 6.20212 19.6265C7.03545 19.0515 7.38545 18.3182 7.31045 17.2765C7.26045 16.5015 7.03545 16.0432 6.46878 15.5682L6.10212 15.2682L6.37711 15.0182C6.83545 14.6182 7.08545 14.0182 7.08545 13.3348C7.07711 12.3848 6.69378 11.7682 5.79378 11.3015L5.37712 11.0765L3.11045 11.0515L0.835449 11.0265V15.5682ZM4.53545 12.7348C4.88545 12.8848 5.16878 13.2765 5.16878 13.6182C5.16878 14.0015 4.86045 14.5098 4.56045 14.6182C4.41878 14.6598 3.97712 14.7015 3.57712 14.7015H2.83545V13.7098C2.83545 12.9932 2.86045 12.7015 2.94378 12.6765C3.16878 12.5848 4.26878 12.6265 4.53545 12.7348ZM4.93545 16.4932C5.36045 16.8098 5.47712 17.4265 5.21878 17.9348C5.00212 18.3515 4.71045 18.4515 3.71045 18.4515H2.83545V17.3598V16.2682L3.77712 16.2932C4.54378 16.3182 4.75212 16.3598 4.93545 16.4932Z" fill="#121212"/>
<path d="M8.1687 15.5763V20.1179H11.4604H14.752V19.1596V18.2013H12.4187H10.0854V17.2846V16.3679L12.152 16.3596C13.2854 16.3513 14.2354 16.3513 14.277 16.3596C14.3104 16.3596 14.3354 15.9513 14.3354 15.4513V14.5346H12.2104H10.0854V13.7429V12.9513H12.4187H14.752V11.9929V11.0346H11.4604H8.1687V15.5763Z" fill="#121212"/>
<path d="M15.3354 11.1012C15.3354 11.1762 15.6521 11.8845 16.1438 12.9512C16.3438 13.3762 16.6521 14.0428 17.0021 14.8262C17.0854 15.0095 17.3188 15.4928 17.5188 15.9095L17.8771 16.6595L17.9188 18.3678L17.9604 20.0762H18.9188H19.8771L19.9188 18.4095C19.9438 17.3512 20.0021 16.6595 20.0688 16.5095C20.1771 16.2512 20.4021 15.7678 20.8688 14.7595C21.0354 14.4095 21.1688 14.1012 21.1688 14.0845C21.1688 14.0595 21.3354 13.6928 21.5354 13.2678C22.1271 12.0178 22.5021 11.1845 22.5021 11.1095C22.5021 11.0678 22.0354 11.0345 21.4521 11.0345H20.4104L20.2854 11.3428C20.2104 11.5178 20.0521 11.8845 19.9271 12.1595C19.8021 12.4345 19.5521 12.9928 19.3771 13.4095C19.0771 14.1345 18.8354 14.5262 18.8354 14.3012C18.8354 14.2512 18.7271 13.9678 18.5938 13.6845C18.4604 13.3928 18.1438 12.6928 17.8854 12.1178L17.4271 11.0762L16.3854 11.0512C15.8104 11.0428 15.3354 11.0595 15.3354 11.1012Z" fill="#121212"/>
<path d="M32.502 15.5347V20.0347H33.4686H34.4353L34.402 17.493C34.3936 16.093 34.402 14.9513 34.427 14.9513C34.452 14.9513 34.5603 15.1513 34.6686 15.3847C34.777 15.6263 35.252 16.5347 35.7103 17.4097C36.177 18.2763 36.6853 19.2263 36.8353 19.5097L37.102 20.0347H38.0936H39.0853V15.5347L39.077 11.0347H38.127H37.1686L37.152 13.6763L37.127 16.3097L36.3186 14.7347C35.877 13.868 35.2686 12.693 34.9686 12.118L34.427 11.0763L33.4686 11.0513L32.502 11.0263V15.5347Z" fill="#121212"/>
<path d="M40.1687 15.5347V20.0347H41.9854C43.3437 20.0347 43.927 20.0013 44.2937 19.9097C45.8854 19.493 47.1854 18.1013 47.502 16.468C47.7354 15.3097 47.4604 13.9347 46.8187 12.9763C46.477 12.4763 45.6437 11.7513 45.127 11.5013C44.277 11.1013 43.827 11.0347 41.927 11.0347H40.1687V15.5347ZM44.177 13.1347C44.7104 13.4513 45.0687 13.8347 45.3187 14.368C45.502 14.7513 45.5354 14.9513 45.5437 15.5347C45.5437 16.1763 45.5187 16.3013 45.2687 16.8013C44.7687 17.818 44.0687 18.2263 42.8687 18.1847L42.127 18.1597L42.102 15.6263C42.0937 14.2263 42.102 13.0347 42.127 12.968C42.1604 12.8763 42.3354 12.8513 42.9854 12.8847C43.677 12.9097 43.852 12.943 44.177 13.1347Z" fill="#121212"/>
</g>
<defs>
<clipPath id="clip0_162_19376">
<rect width="83.3333" height="20" fill="white" transform="translate(0.835205 0.284668)"/>
</clipPath>
</defs>
</svg>
