<svg viewBox="0 0 181 62" fill="none" xmlns="http://www.w3.org/2000/svg">
  <path d="M8.44665 34.9168H1.42358V30.5376H20.5583V34.9168H13.5352V55.0758H8.44665V34.9168Z" fill="#121212" />
  <path
    d="M22.9025 44.5884H30.4681C30.3315 42.6889 29.0088 41.1599 26.7358 41.1599C24.5974 41.1599 23.3104 42.2136 22.9025 44.5884ZM35.2181 49.2726C34.539 52.9724 31.2819 55.3472 27.0744 55.3472C21.2749 55.3472 18.2871 50.7917 18.2871 46.4898C18.2871 42.1462 20.9344 37.6997 26.7358 37.6997C32.7748 37.6997 35.1825 42.1462 35.1825 46.0481C35.1825 46.6938 35.1508 47.2008 35.1151 47.5752H22.8391C23.1777 49.9856 24.7043 51.477 27.0783 51.477C28.9791 51.477 30.2344 50.7303 30.6067 49.2726H35.2181Z"
    fill="#121212" />
  <path
    d="M37.7585 46.5235C37.7585 41.5343 41.2869 37.6978 46.5794 37.6978C51.0582 37.6978 54.6202 40.4132 54.9251 44.3844H50.1731C49.9019 42.8573 48.4426 41.7383 46.7121 41.7383C44.1678 41.7383 42.6749 43.7407 42.6749 46.5235C42.6749 49.3063 44.1995 51.277 46.7794 51.277C48.5099 51.277 49.9019 50.2273 50.2405 48.7022H55.0578C54.5529 52.4872 51.0245 55.3472 46.5814 55.3472C41.2889 55.3472 37.7605 51.5107 37.7605 46.5235"
    fill="#121212" />
  <path
    d="M57.6021 30.5376H62.3184V40.3457C63.3084 38.684 65.1676 37.6996 67.5416 37.6996C71.3749 37.6996 73.8776 40.4725 73.8776 44.4179V55.0758H69.1712V45.4716C69.1712 43.3999 67.8129 41.9065 65.8448 41.9065C63.7776 41.9065 62.3184 43.491 62.3184 45.7073V55.0738H57.6021V30.5376Z"
    fill="#121212" />
  <path
    d="M77.323 37.971H82.075V40.3478C83.0254 38.6841 84.9242 37.7017 87.2665 37.7017C91.1335 37.7017 93.6461 40.4746 93.6461 44.422V55.0778H88.8941V45.4717C88.8941 43.4 87.5715 41.9066 85.6034 41.9066C83.5343 41.9066 82.075 43.503 82.075 45.7074V55.0758H77.323V37.971Z"
    fill="#121212" />
  <path
    d="M109.365 46.5235C109.365 43.6714 107.635 41.7383 105.091 41.7383C102.546 41.7383 100.818 43.6714 100.818 46.5235C100.818 49.34 102.546 51.277 105.091 51.277C107.635 51.277 109.365 49.3439 109.365 46.5235ZM96.0657 46.5235C96.0657 41.4313 99.8277 37.6978 105.091 37.6978C110.353 37.6978 114.115 41.4313 114.115 46.5235C114.115 51.6157 110.353 55.3472 105.091 55.3472C99.8277 55.3472 96.0657 51.6137 96.0657 46.5235Z"
    fill="#121212" />
  <path d="M121.554 30.5376H116.838V55.0758H121.554V30.5376Z" fill="#121212" />
  <path
    d="M137.541 46.5235C137.541 43.6714 135.808 41.7383 133.266 41.7383C130.724 41.7383 128.989 43.6714 128.989 46.5235C128.989 49.34 130.722 51.277 133.266 51.277C135.81 51.277 137.541 49.3439 137.541 46.5235ZM124.241 46.5235C124.241 41.4313 128.003 37.6978 133.266 37.6978C138.529 37.6978 142.291 41.4313 142.291 46.5235C142.291 51.6157 138.529 55.3472 133.266 55.3472C128.003 55.3472 124.241 51.6137 124.241 46.5235Z"
    fill="#121212" />
  <path
    d="M157.15 46.5235C157.15 43.6377 155.489 41.7382 152.945 41.7382C150.434 41.7382 148.771 43.6377 148.771 46.5235C148.771 49.4093 150.434 51.277 152.945 51.277C155.489 51.277 157.15 49.4093 157.15 46.5235ZM161.596 37.9711V56.0939C161.596 59.6591 159.022 62.0002 155.149 62.0002H146.532V58.3004H154.404C155.83 58.3004 156.879 57.1793 156.879 55.5849V53.3448C155.998 54.6005 154.2 55.3472 152.198 55.3472C147.144 55.3472 144.124 51.8514 144.124 46.5235C144.124 41.1955 147.144 37.6997 152.131 37.6997C154.2 37.6997 155.893 38.4801 156.848 39.6665V37.9711H161.596Z"
    fill="#121212" />
  <path
    d="M175.444 37.9707L171.88 49.0009L168.286 37.9707H163.467L169.676 54.9389L167.165 61.9979H171.676L174.088 55.0062L180.295 37.9707H175.444Z"
    fill="#121212" />
  <path
    d="M0 0.00585938H5.15592L9.70396 17.0354L14.555 0.00585938H18.8634L23.7481 17.0354L28.3278 0.00585938H33.4877L26.4646 24.5381H21.4414L16.727 7.94823L12.0107 24.5381H7.05671L0 0.00585938Z"
    fill="#121212" />
  <path
    d="M100.588 0.00585938H105.742L110.29 17.0354L115.141 0.00585938H119.449L124.336 17.0354L128.916 0.00585938H134.074L127.051 24.5381H122.029L117.315 7.94823L112.597 24.5381H107.643L100.588 0.00585938Z"
    fill="#121212" />
  <path
    d="M45.6646 15.9839C45.6646 13.1337 43.9321 11.2006 41.3898 11.2006C38.8475 11.2006 37.113 13.1337 37.113 15.9839C37.113 18.8023 38.8455 20.7374 41.3898 20.7374C43.9341 20.7374 45.6646 18.8043 45.6646 15.9839ZM32.365 15.9839C32.365 10.8936 36.127 7.16211 41.3898 7.16211C46.6527 7.16211 50.4127 10.8936 50.4127 15.9839C50.4127 21.0741 46.6507 24.8096 41.3898 24.8096C36.129 24.8096 32.365 21.0761 32.365 15.9839Z"
    fill="#121212" />
  <path
    d="M61.1027 11.3687C58.7624 11.3687 57.711 13.3038 57.711 16.2232V24.5419H52.959V7.43115H57.711V10.2833C58.6277 8.14418 59.9167 7.43115 61.9858 7.43115H63.9203V11.3687H61.1027Z"
    fill="#121212" />
  <path d="M70.6245 0H65.9082V24.5382H70.6245V0Z" fill="#121212" />
  <path
    d="M86.4449 15.9838C86.4449 13.1 84.7817 11.2005 82.273 11.2005C79.7644 11.2005 78.0972 13.1 78.0972 15.9838C78.0972 18.8359 79.7624 20.7373 82.273 20.7373C84.7837 20.7373 86.4449 18.8379 86.4449 15.9838ZM73.4165 15.9838C73.4165 10.6558 76.4716 7.162 81.4236 7.162C83.562 7.162 85.2232 7.97604 86.1756 9.22979V0H90.894V24.5382H86.1816V22.6704C85.2331 23.9935 83.467 24.8095 81.5008 24.8095C76.4815 24.8095 73.4264 21.3137 73.4264 15.9838"
    fill="#121212" />
  <path d="M136.22 24.5382H140.972V7.43335H136.22V24.5382ZM136.083 4.98924H141.103V0H136.077L136.083 4.98924Z"
    fill="#121212" />
  <path
    d="M156.574 15.9838C156.574 13.1 154.911 11.2005 152.4 11.2005C149.89 11.2005 148.227 13.1 148.227 15.9838C148.227 18.8359 149.89 20.7373 152.4 20.7373C154.911 20.7373 156.574 18.8379 156.574 15.9838ZM143.546 15.9838C143.546 10.6558 146.599 7.162 151.551 7.162C153.689 7.162 155.353 7.97604 156.303 9.22979V0H161.025V24.5382H156.307V22.6704C155.359 23.9935 153.592 24.8095 151.626 24.8095C146.605 24.8095 143.552 21.3137 143.552 15.9838"
    fill="#121212" />
  <path
    d="M168.312 14.0508H175.876C175.739 12.1494 174.416 10.6223 172.143 10.6223C170.005 10.6223 168.716 11.676 168.31 14.0508H168.312ZM180.628 18.735C179.948 22.4328 176.691 24.8096 172.484 24.8096C166.682 24.8096 163.697 20.2541 163.697 15.9502C163.697 11.6067 166.344 7.16211 172.145 7.16211C178.184 7.16211 180.592 11.6067 180.592 15.5105C180.592 16.1542 180.56 16.6632 180.525 17.0376H168.249C168.587 19.446 170.114 20.9394 172.488 20.9394C174.389 20.9394 175.644 20.1927 176.016 18.735H180.628Z"
    fill="#121212" />
</svg>